<svg width="2955" height="1414" xmlns="http://www.w3.org/2000/svg" xmlns:xlink="http://www.w3.org/1999/xlink" xml:space="preserve" overflow="hidden"><g transform="translate(-1003 -541)"><path d="M2787 1238 3847.19 1238" stroke="#000000" stroke-width="2.29167" stroke-miterlimit="8" fill="none" fill-rule="evenodd"/><text font-family="Arial,Arial_MSFontService,sans-serif" font-weight="400" font-size="73" transform="matrix(1 0 0 1 2706.75 1258)">x</text><text font-family="Arial,Arial_MSFontService,sans-serif" font-weight="400" font-size="73" transform="matrix(1 0 0 1 3876.97 1258)">y</text><path d="M3218.5 657.5 3218.5 1822.81" stroke="#000000" stroke-width="3.4375" stroke-miterlimit="8" fill="none" fill-rule="evenodd"/><path d="M3362.5 657.5 3362.5 1513.44" stroke="#000000" stroke-width="3.4375" stroke-miterlimit="8" fill="none" fill-rule="evenodd"/><path d="M0 0 756.25 0.000360892" stroke="#000000" stroke-width="3.4375" stroke-miterlimit="8" fill="none" fill-rule="evenodd" transform="matrix(-1 0 0 1 3620.75 1513.5)"/><path d="M0 0 756.25 0.000360892" stroke="#000000" stroke-width="3.4375" stroke-miterlimit="8" fill="none" fill-rule="evenodd" transform="matrix(-1 0 0 1 3620.75 1024.5)"/><path d="M0 0 601.562 0.000360892" stroke="#000000" stroke-width="3.4375" stroke-miterlimit="8" fill="none" fill-rule="evenodd" transform="matrix(-1 0 0 1 3620.06 657.5)"/><path d="M2957.5 1024.5 2957.5 1512.62" stroke="#000000" stroke-width="3.4375" stroke-miterlimit="8" fill="none" fill-rule="evenodd"/><path d="M0 0 261.25 367.812" stroke="#000000" stroke-width="6.875" stroke-miterlimit="8" fill="none" fill-rule="evenodd" transform="matrix(-1 0 0 1 3218.75 657.5)"/><path d="M0 0 405.625 366.093" stroke="#000000" stroke-width="4.58333" stroke-miterlimit="8" fill="none" fill-rule="evenodd" transform="matrix(-1 0 0 1 3363.13 658.5)"/><path d="M3218.75 1822.88 2957.5 1513.5" stroke="#000000" stroke-width="6.875" stroke-miterlimit="8" fill="none" fill-rule="evenodd"/><path d="M0 0 601.562 0.000360892" stroke="#000000" stroke-width="3.4375" stroke-miterlimit="8" fill="none" fill-rule="evenodd" transform="matrix(-1 0 0 1 3620.06 1824.5)"/><path d="M3361.5 1511.5C3360.83 1523.85 3360.31 1535.91 3359.21 1547.11 3358.12 1558.31 3358.35 1562.43 3354.92 1578.7 3351.49 1594.97 3344.15 1626.9 3338.62 1644.75 3333.09 1662.6 3327.47 1673.75 3321.75 1685.82 3316.03 1697.88 3311.64 1705.58 3304.3 1717.12 3296.96 1728.65 3286.66 1743.15 3277.7 1755.02 3268.74 1766.89 3260.83 1777.42 3250.53 1788.34 3240.24 1799.25 3229.37 1809.87 3218.5 1820.5" stroke="#000000" stroke-width="3.4375" stroke-miterlimit="8" fill="none" fill-rule="evenodd"/><text font-family="Arial,Arial_MSFontService,sans-serif" font-weight="400" font-size="73" transform="matrix(1 0 0 1 2968.63 681)">p</text><text font-family="Arial,Arial_MSFontService,sans-serif" font-weight="400" font-size="73" transform="matrix(1 0 0 1 3632.17 672)">p</text><text font-family="Arial,Arial_MSFontService,sans-serif" font-weight="400" font-size="73" transform="matrix(1 0 0 1 2979.22 1841)">r</text><text font-family="Arial,Arial_MSFontService,sans-serif" font-weight="400" font-size="73" transform="matrix(1 0 0 1 3652.99 1841)">s</text><text font-family="Arial,Arial_MSFontService,sans-serif" font-weight="400" font-size="73" transform="matrix(1 0 0 1 3351.08 634)">b’</text><text font-family="Arial,Arial_MSFontService,sans-serif" font-weight="400" font-size="73" transform="matrix(1 0 0 1 3377 1498)">b</text><text font-family="Arial,Arial_MSFontService,sans-serif" font-weight="400" font-size="73" transform="matrix(1 0 0 1 2898.86 1498)">a</text><text font-family="Arial,Arial_MSFontService,sans-serif" font-weight="400" font-size="73" transform="matrix(1 0 0 1 3118.14 962)">α</text><text font-family="Arial,Arial_MSFontService,sans-serif" font-weight="400" font-size="73" transform="matrix(1 0 0 1 3057.22 1589)">β</text><text font-family="Arial,Arial_MSFontService,sans-serif" font-weight="400" font-size="73" transform="matrix(1 0 0 1 3065.43 1012)">θ</text><text font-family="Arial,Arial_MSFontService,sans-serif" font-weight="400" font-size="73" transform="matrix(1 0 0 1 2903.87 1014)">a’</text><text font-family="Arial,Arial_MSFontService,sans-serif" font-weight="400" font-size="73" transform="matrix(1 0 0 1 2812 1048)">c</text><text font-family="Arial,Arial_MSFontService,sans-serif" font-weight="400" font-size="73" transform="matrix(1 0 0 1 2812 1533)">e</text><text font-family="Arial,Arial_MSFontService,sans-serif" font-weight="400" font-size="73" transform="matrix(1 0 0 1 3202.64 634)">b’</text><text font-family="Arial,Arial_MSFontService,sans-serif" font-weight="400" font-size="46" transform="matrix(1 0 0 1 3240.26 644)">1</text><text font-family="Arial,Arial_MSFontService,sans-serif" font-weight="400" font-size="73" transform="matrix(1 0 0 1 3209.51 1894)">b</text><text font-family="Arial,Arial_MSFontService,sans-serif" font-weight="400" font-size="46" transform="matrix(1 0 0 1 3245.6 1905)">1</text><path d="M3033.99 957.083C3057.05 971.378 3066.63 1000.09 3056.76 1025.37" stroke="#000000" stroke-width="4.58333" stroke-miterlimit="8" fill="none" fill-rule="evenodd"/><path d="M3043.25 899.814C3093.81 920.539 3126.27 970.385 3124.78 1025.01" stroke="#000000" stroke-width="4.58333" stroke-miterlimit="8" fill="none" fill-rule="evenodd"/><path d="M3043.47 1511.83C3051.12 1537.86 3039.11 1565.64 3014.91 1577.9" stroke="#000000" stroke-width="4.58333" stroke-miterlimit="8" fill="none" fill-rule="evenodd"/><text font-family="Arial,Arial_MSFontService,sans-serif" font-weight="400" font-size="73" transform="matrix(1 0 0 1 3641.82 1048)">d</text><text font-family="Arial,Arial_MSFontService,sans-serif" font-weight="400" font-size="73" transform="matrix(1 0 0 1 3652.99 1533)">f</text><path d="M1267.78 1559.44 1108.5 1472.5" stroke="#000000" stroke-width="3.4375" stroke-miterlimit="8" stroke-dasharray="27.5 10.3125 3.4375 10.3125" fill="none" fill-rule="evenodd"/><rect x="1227" y="1506" width="43.0004" height="66" fill="#FFFFFF"/><path d="M1272.22 1434.38 1573.06 902.5C1574.21 1057.76 1575.35 1223.33 1576.5 1378.6L1270.5 1561.5 1272.22 1434.38Z" stroke="#000000" stroke-width="3.4375" stroke-miterlimit="8" fill="#D9D9D9" fill-rule="evenodd"/><path d="M0 0 636.509 367.566" stroke="#000000" stroke-width="3.4375" stroke-miterlimit="8" stroke-dasharray="27.5 10.3125 3.4375 10.3125 3.4375 10.3125" fill="none" fill-rule="evenodd" transform="matrix(1 0 0 -1 1162.5 1624.07)"/><path d="M0 0 150.104 442.865" stroke="#000000" stroke-width="6.875" stroke-miterlimit="8" fill="none" fill-rule="evenodd" transform="matrix(-1 0 0 1 1261.6 903.5)"/><path d="M0 0 300.532 531.667" stroke="#000000" stroke-width="6.875" stroke-miterlimit="8" fill="none" fill-rule="evenodd" transform="matrix(-1 0 0 1 1573.03 903.5)"/><path d="M0 0 428.449 291.585" stroke="#000000" stroke-width="6.875" stroke-miterlimit="8" fill="none" fill-rule="evenodd" transform="matrix(-1 0 0 1 1696.95 1144.5)"/><path d="M0 0 300.532 178.75" stroke="#000000" stroke-width="6.875" stroke-miterlimit="8" fill="none" fill-rule="evenodd" transform="matrix(-1 0 0 1 1573.03 1384.5)"/><path d="M1696.78 1629.96 1272.5 1563.5" stroke="#000000" stroke-width="6.875" stroke-miterlimit="8" fill="none" fill-rule="evenodd"/><path d="M0 0 0.000360892 563.018" stroke="#000000" stroke-width="4.58333" stroke-miterlimit="8" fill="none" fill-rule="evenodd" transform="matrix(1 0 0 -1 1033.5 1512.52)"/><path d="M1033.5 1513.5 1358.67 1706" stroke="#000000" stroke-width="4.58333" stroke-miterlimit="8" fill="none" fill-rule="evenodd"/><path d="M0 0 761.675 442.005" stroke="#000000" stroke-width="4.58333" stroke-miterlimit="8" fill="none" fill-rule="evenodd" transform="matrix(1 0 0 -1 1037.5 1512.51)"/><path d="M0 0 505.013 293.063" stroke="#000000" stroke-width="4.58333" stroke-miterlimit="8" fill="none" fill-rule="evenodd" transform="matrix(1 0 0 -1 1029.5 949.563)"/><path d="M0 0 453.451 261.855" stroke="#000000" stroke-width="3.4375" stroke-miterlimit="8" stroke-dasharray="27.5 10.3125 3.4375 10.3125 3.4375 10.3125" fill="none" fill-rule="evenodd" transform="matrix(1 0 0 -1 1162.5 962.355)"/><path d="M0 0 665.929 384.555" stroke="#000000" stroke-width="3.4375" stroke-miterlimit="8" stroke-dasharray="27.5 10.3125 3.4375 10.3125 3.4375 10.3125" fill="none" fill-rule="evenodd" transform="matrix(1 0 0 -1 1059.5 1372.05)"/><path d="M0 0 106.896 189.108" stroke="#000000" stroke-width="3.4375" stroke-miterlimit="8" fill="none" fill-rule="evenodd" transform="matrix(-1 0 0 1 1268.4 1435.5)"/><path d="M0 0 0.000360892 481.831" stroke="#000000" stroke-width="3.4375" stroke-miterlimit="8" stroke-dasharray="27.5 10.3125 3.4375 10.3125" fill="none" fill-rule="evenodd" transform="matrix(1 0 0 -1 1265.5 1384.33)"/><path d="M0 0 0.000360892 473.802" stroke="#000000" stroke-width="3.4375" stroke-miterlimit="8" stroke-dasharray="27.5 10.3125 3.4375 10.3125" fill="none" fill-rule="evenodd" transform="matrix(1 0 0 -1 1417.5 1290.3)"/><path d="M0 0 0.000360892 481.831" stroke="#000000" stroke-width="3.4375" stroke-miterlimit="8" fill="none" fill-rule="evenodd" transform="matrix(1 0 0 -1 1574.5 1384.33)"/><path d="M0 0 0.000360892 477.455" stroke="#000000" stroke-width="3.4375" stroke-miterlimit="8" fill="none" fill-rule="evenodd" transform="matrix(1 0 0 -1 1694.5 1629.95)"/><path d="M0 0 0.000360892 127.76" stroke="#000000" stroke-width="3.4375" stroke-miterlimit="8" stroke-dasharray="27.5 10.3125 3.4375 10.3125" fill="none" fill-rule="evenodd" transform="matrix(1 0 0 -1 1108.5 1474.26)"/><path d="M1695.96 1152.66 1265.5 902.5" stroke="#000000" stroke-width="3.4375" stroke-miterlimit="8" stroke-dasharray="27.5 10.3125" fill="none" fill-rule="evenodd"/><path d="M0 0 301.065 525.232" stroke="#000000" stroke-width="3.4375" stroke-miterlimit="8" fill="none" fill-rule="evenodd" transform="matrix(1 0 0 -1 1114.5 1340.73)"/><text font-family="Aptos,Aptos_MSFontService,sans-serif" font-weight="400" font-size="64" transform="matrix(1 0 0 1 1228.37 1564)">θ</text><path d="M1577.78 904.442 1418.5 817.5" stroke="#000000" stroke-width="3.4375" stroke-miterlimit="8" stroke-dasharray="27.5 10.3125" fill="none" fill-rule="evenodd"/><path d="M1270.23 1433.78 1108.5 1345.5" stroke="#000000" stroke-width="3.4375" stroke-miterlimit="8" stroke-dasharray="27.5 10.3125" fill="none" fill-rule="evenodd"/><path d="M1691.68 1622.67 1264.5 1381.5" stroke="#000000" stroke-width="3.4375" stroke-miterlimit="8" stroke-dasharray="27.5 10.3125 3.4375 10.3125" fill="none" fill-rule="evenodd"/><path d="M1573.78 1379.44 1414.5 1292.5" stroke="#000000" stroke-width="3.4375" stroke-miterlimit="8" stroke-dasharray="27.5 10.3125 3.4375 10.3125" fill="none" fill-rule="evenodd"/><path d="M1574.5 900.5 1595.1 921.929C1602.96 930.071 1614.12 940.357 1621.7 949.357 1629.28 958.357 1635.57 968.357 1640.58 975.929 1645.58 983.5 1647.87 988.214 1651.73 994.786 1655.6 1001.36 1659.31 1005.79 1663.75 1015.36 1668.18 1024.93 1674.76 1040.93 1678.34 1052.21 1681.91 1063.5 1683.06 1072.21 1685.2 1083.07 1687.35 1093.93 1689.49 1106.79 1691.21 1117.36 1692.93 1127.93 1695.21 1140.93 1695.5 1146.5" stroke="#000000" stroke-width="3.4375" stroke-miterlimit="8" fill="none" fill-rule="evenodd"/><path d="M0 0 283.788 163.879" stroke="#000000" stroke-width="3.4375" stroke-miterlimit="8" stroke-dasharray="27.5 10.3125 3.4375 10.3125 3.4375 10.3125" fill="none" fill-rule="evenodd" transform="matrix(1 0 0 -1 1621.5 1673.38)"/><path d="M1505.5 1271.5 1505.5 1596.63" stroke="#000000" stroke-width="3.4375" stroke-miterlimit="8" fill="none" fill-rule="evenodd"/><path d="M1534.5 1256.5 1534.5 1605.24" stroke="#000000" stroke-width="3.4375" stroke-miterlimit="8" fill="none" fill-rule="evenodd"/><path d="M1564.5 1238.5 1564.5 1605.86" stroke="#000000" stroke-width="3.4375" stroke-miterlimit="8" fill="none" fill-rule="evenodd"/><path d="M1596.5 1210.5 1596.5 1609.25" stroke="#000000" stroke-width="3.4375" stroke-miterlimit="8" fill="none" fill-rule="evenodd"/><path d="M1624.5 1192.5 1624.5 1616.17" stroke="#000000" stroke-width="3.4375" stroke-miterlimit="8" fill="none" fill-rule="evenodd"/><path d="M1653.5 1179.5 1653.5 1622.46" stroke="#000000" stroke-width="3.4375" stroke-miterlimit="8" fill="none" fill-rule="evenodd"/><path d="M1683.5 1152.5 1683.5 1629.95" stroke="#000000" stroke-width="3.4375" stroke-miterlimit="8" fill="none" fill-rule="evenodd"/><path d="M1476.5 1290.5 1476.5 1592.41" stroke="#000000" stroke-width="3.4375" stroke-miterlimit="8" fill="none" fill-rule="evenodd"/><path d="M1387.5 1354.5 1387.5 1583.09" stroke="#000000" stroke-width="3.4375" stroke-miterlimit="8" fill="none" fill-rule="evenodd"/><path d="M1446.5 1311.5 1446.5 1588.17" stroke="#000000" stroke-width="3.4375" stroke-miterlimit="8" fill="none" fill-rule="evenodd"/><path d="M1416.5 1335.5 1416.5 1589.95" stroke="#000000" stroke-width="3.4375" stroke-miterlimit="8" fill="none" fill-rule="evenodd"/><path d="M1357.5 1371.5 1357.5 1577.17" stroke="#000000" stroke-width="3.4375" stroke-miterlimit="8" fill="none" fill-rule="evenodd"/><path d="M1326.5 1396.5 1326.5 1570.95" stroke="#000000" stroke-width="3.4375" stroke-miterlimit="8" fill="none" fill-rule="evenodd"/><path d="M1298.5 1420.5 1298.5 1570.89" stroke="#000000" stroke-width="3.4375" stroke-miterlimit="8" fill="none" fill-rule="evenodd"/><path d="M1356.5 1702.95C1367.23 1706.91 1377.97 1710.87 1391.71 1712.45 1405.45 1714.04 1425.48 1713.17 1438.94 1712.45 1452.39 1711.73 1465.13 1709.14 1472.43 1708.14 1479.73 1707.13 1474.72 1704.82 1482.73 1706.41 1490.75 1707.99 1509.78 1715.76 1520.51 1717.64 1531.25 1719.51 1535.4 1717.78 1547.13 1717.64L1590.93 1716.77C1602.38 1716.77 1609.1 1718.64 1615.83 1717.64 1622.56 1716.63 1625.56 1713.03 1631.29 1710.73 1637.01 1708.42 1641.45 1704.39 1650.18 1703.82 1658.91 1703.24 1675.37 1706.98 1683.67 1707.27 1691.97 1707.56 1694.26 1706.84 1699.98 1705.54 1705.71 1704.25 1712.01 1701.23 1718.02 1699.5 1724.03 1697.77 1736.05 1695.18 1736.05 1695.18 1742.06 1694.03 1747.5 1695.04 1754.08 1692.59 1760.67 1690.14 1766.11 1685.97 1775.55 1680.5L1810.76 1659.77C1832.08 1647.11 1881.46 1614.29 1903.5 1604.5" stroke="#000000" stroke-width="4.58333" stroke-miterlimit="8" fill="none" fill-rule="evenodd"/><path d="M1656.86 1046.38 1677.07 1052.67 1689.86 1036.58 1681.35 1068.37 1656.86 1046.38Z" fill-rule="evenodd"/><text font-family="Arial,Arial_MSFontService,sans-serif" font-weight="400" font-size="64" transform="matrix(1 0 0 1 1118.16 987)">p</text><text font-family="Arial,Arial_MSFontService,sans-serif" font-weight="400" font-size="64" transform="matrix(1 0 0 1 1623.27 708)">q</text><text font-family="Arial,Arial_MSFontService,sans-serif" font-weight="400" font-size="64" transform="matrix(1 0 0 1 1383.09 809)">b</text><text font-family="Arial,Arial_MSFontService,sans-serif" font-weight="400" font-size="64" transform="matrix(1 0 0 1 1573.53 890)">B</text><text font-family="Arial,Arial_MSFontService,sans-serif" font-weight="400" font-size="64" transform="matrix(1 0 0 1 1205.42 1466)">A</text><rect x="1598" y="1350" width="43" height="67" fill="#FFFFFF"/><text font-family="Arial,Arial_MSFontService,sans-serif" font-weight="400" font-size="64" transform="matrix(1 0 0 1 1706.77 1169)">B</text><text font-family="Arial,Arial_MSFontService,sans-serif" font-weight="400" font-size="64" transform="matrix(1 0 0 1 1600.32 1405)">b</text><text font-family="Arial,Arial_MSFontService,sans-serif" font-weight="400" font-size="64" transform="matrix(1 0 0 1 1255.77 1610)">a</text><text font-family="Arial,Arial_MSFontService,sans-serif" font-weight="400" font-size="64" transform="matrix(1 0 0 1 1121.45 1668)">e</text><text font-family="Arial,Arial_MSFontService,sans-serif" font-weight="400" font-size="64" transform="matrix(1 0 0 1 1591.28 1687)">r</text><text font-family="Arial,Arial_MSFontService,sans-serif" font-weight="400" font-size="64" transform="matrix(1 0 0 1 1041.84 1416)">c</text><text font-family="Arial,Arial_MSFontService,sans-serif" font-weight="400" font-size="64" transform="matrix(1 0 0 1 1066.91 1335)">a'</text><text font-family="Arial,Arial_MSFontService,sans-serif" font-weight="400" font-size="64" transform="matrix(1 0 0 1 1912.85 1516)">s</text><text font-family="Arial,Arial_MSFontService,sans-serif" font-weight="400" font-size="64" transform="matrix(1 0 0 1 1285.93 1143)">α</text><text font-family="Aptos,Aptos_MSFontService,sans-serif" font-weight="400" font-size="64" transform="matrix(1 0 0 1 1215.14 1248)">θ</text><rect x="1421" y="1494" width="43" height="67" fill="#FFFFFF"/><text font-family="Arial,Arial_MSFontService,sans-serif" font-weight="400" font-size="64" transform="matrix(1 0 0 1 1420.44 1544)">β</text><path d="M1209.68 1551.51 1212.84 1553.99 1217.36 1558.89 1221.03 1564.42 1223.77 1570.46 1225.54 1576.89 1225.98 1580.88 1222.56 1581.25 1222.14 1577.39 1222.19 1577.67 1220.5 1571.5 1220.59 1571.76 1217.95 1565.97 1218.09 1566.21 1214.57 1560.91 1214.74 1561.12 1210.41 1556.42 1210.61 1556.61 1207.56 1554.21ZM1208.62 1552.86 1211.67 1565.46 1200.8 1548.08 1221.22 1549.82ZM1224.27 1581.07 1233.52 1571.99 1224.18 1590.23 1215.19 1571.81Z"/><path d="M1371.24 1514.63 1372.96 1515.59 1377.58 1518.71 1381.9 1522.18 1385.89 1525.97 1389.56 1530.08 1395.76 1539.01 1400.45 1548.86 1403.47 1559.37 1404.34 1564.87 1404.75 1570.44 1404.73 1572.4 1401.29 1572.36 1401.31 1570.47 1401.32 1570.62 1400.92 1565.2 1400.93 1565.34 1400.09 1560.01 1400.14 1560.22 1397.18 1549.95 1397.28 1550.21 1392.72 1540.61 1392.86 1540.85 1386.8 1532.12 1386.93 1532.29 1383.37 1528.31 1383.47 1528.41 1379.58 1524.72 1379.69 1524.81 1375.49 1521.43 1375.6 1521.52 1371.09 1518.48 1371.22 1518.55 1369.57 1517.63ZM1370.41 1516.13 1374.58 1528.41 1362.18 1512.08 1382.68 1511.96ZM1403.01 1572.38 1412.73 1563.8 1402.44 1581.53 1394.43 1562.66Z"/><path d="M1189.8 1227.46 1190.12 1227.64 1197.76 1233.26 1204.31 1240.01 1209.64 1247.69 1213.65 1256.14 1216.25 1265.17 1217.34 1274.59 1217.33 1274.97 1213.9 1274.93 1213.9 1274.66 1213.91 1274.88 1212.85 1265.71 1212.91 1265.98 1210.39 1257.22 1210.49 1257.48 1206.59 1249.3 1206.73 1249.54 1201.56 1242.09 1201.74 1242.3 1195.39 1235.76 1195.6 1235.95 1188.17 1230.47 1188.35 1230.59 1188.12 1230.46ZM1188.96 1228.96 1193.04 1241.26 1180.77 1224.84 1201.26 1224.88ZM1215.62 1274.95 1225.27 1266.3 1215.11 1284.1 1206.96 1265.29Z"/><path d="M1200.4 1114.17 1202.96 1114.43 1214.36 1116.73 1225.34 1120.06 1235.85 1124.36 1245.84 1129.58 1255.26 1135.67 1264.04 1142.57 1272.15 1150.23 1279.53 1158.59 1286.13 1167.6 1291.9 1177.22 1296.78 1187.37 1300.73 1198.02 1303.69 1209.11 1305.6 1220.58 1305.78 1223.15 1302.35 1223.39 1302.18 1220.9 1302.2 1221.07 1300.31 1209.76 1300.34 1209.92 1297.43 1198.99 1297.48 1199.14 1293.59 1188.64 1293.65 1188.79 1288.84 1178.78 1288.91 1178.92 1283.23 1169.44 1283.31 1169.57 1276.81 1160.68 1276.91 1160.8 1269.63 1152.56 1269.74 1152.67 1261.74 1145.12 1261.86 1145.22 1253.2 1138.42 1253.32 1138.51 1244.04 1132.51 1244.18 1132.59 1234.33 1127.45 1234.48 1127.51 1224.12 1123.27 1224.27 1123.33 1213.44 1120.05 1213.6 1120.09 1202.36 1117.82 1202.53 1117.84 1200.04 1117.59ZM1200.22 1115.88 1208.39 1125.94 1191.1 1114.93 1210.28 1107.71ZM1304.07 1223.27 1312.57 1213.49 1304.71 1232.42 1294.28 1214.77Z"/><path d="M1574.49 1385.25C1647.22 1443.58 1689.56 1531.77 1689.59 1625" stroke="#000000" stroke-width="3.4375" stroke-miterlimit="8" fill="none" fill-rule="evenodd"/><path d="M1632.29 1477.18 1653.36 1479.2 1662.59 1460.83 1660.76 1493.69 1632.29 1477.18Z" fill-rule="evenodd"/><text font-family="Arial,Arial_MSFontService,sans-serif" font-weight="400" font-size="64" transform="matrix(1 0 0 1 1704.12 1660)">b</text><text font-family="Arial,Arial_MSFontService,sans-serif" font-weight="400" font-size="50" transform="matrix(1 0 0 1 1734.14 1685)">1</text><text font-family="Arial,Arial_MSFontService,sans-serif" font-weight="400" font-size="50" transform="matrix(1 0 0 1 1746.05 1183)">1</text><text font-family="Arial,Arial_MSFontService,sans-serif" font-weight="400" font-size="64" transform="matrix(1 0 0 1 1216.77 885)">b'</text><text font-family="Arial,Arial_MSFontService,sans-serif" font-weight="400" font-size="50" transform="matrix(1 0 0 1 1248.52 897)">1</text><text font-family="Arial,Arial_MSFontService,sans-serif" font-weight="400" font-size="64" transform="matrix(1 0 0 1 1726.29 997)">d</text></g></svg>